<svg xmlns="http://www.w3.org/2000/svg" viewBox="0 0 24 24" fill="currentColor">
  <path d="M12 .75a11.25 11.25 0 00-3.556 21.923c.563.104.77-.244.77-.543 0-.268-.01-.978-.015-1.92-3.131.68-3.792-1.509-3.792-1.509-.513-1.303-1.252-1.65-1.252-1.65-1.023-.699.077-.685.077-.685 1.131.08 1.726 1.162 1.726 1.162 1.005 1.722 2.637 1.225 3.279.937.102-.728.394-1.225.716-1.507-2.5-.284-5.13-1.25-5.13-5.565 0-1.229.438-2.234 1.157-3.022-.116-.284-.502-1.429.11-2.979 0 0 .944-.302 3.094 1.155a10.783 10.783 0 015.634 0c2.148-1.457 3.09-1.155 3.09-1.155.615 1.55.229 2.695.113 2.979.72.788 1.155 1.793 1.155 3.022 0 4.326-2.635 5.277-5.143 5.555.404.348.764 1.034.764 2.084 0 1.505-.014 2.72-.014 3.09 0 .302.203.653.777.542A11.25 11.25 0 0012 .75z" />
</svg>
